<svg width="12" height="7" viewBox="0 0 12 7" fill="none" xmlns="http://www.w3.org/2000/svg">
<g clip-path="url(#clip0_6_199)">
<path d="M1.33514e-05 0.59996C0.000153542 0.440884 0.0634604 0.288374 0.176014 0.17596C0.288514 0.0635999 0.441013 0.000488281 0.600014 0.000488281C0.759014 0.000488281 0.911513 0.0635999 1.02401 0.17596L6.00001 5.15196L10.976 0.17596C11.0898 0.0699763 11.2402 0.0122777 11.3956 0.0150203C11.5511 0.0177629 11.6994 0.0807325 11.8093 0.190663C11.9192 0.300593 11.9822 0.448901 11.985 0.604342C11.9877 0.759783 11.93 0.91022 11.824 1.02396L6.42401 6.42396C6.31151 6.53632 6.15901 6.59943 6.00001 6.59943C5.84101 6.59943 5.68851 6.53632 5.57601 6.42396L0.176014 1.02396C0.0634604 0.911546 0.000153542 0.759037 1.33514e-05 0.59996Z" fill="#1C1E20"/>
</g>
<defs>
<clipPath id="clip0_6_199">
<rect x="12" width="6.6" height="12" transform="rotate(90 12 0)" fill="white"/>
</clipPath>
</defs>
</svg>
