<svg width="7" height="12" viewBox="0 0 7 12" fill="none" xmlns="http://www.w3.org/2000/svg">
<g clip-path="url(#clip0_322_4281)">
<path d="M0.999861 12C0.840784 11.9999 0.688274 11.9366 0.575861 11.824C0.4635 11.7115 0.400389 11.559 0.400389 11.4C0.400389 11.241 0.4635 11.0885 0.575861 10.976L5.55186 6.00005L0.575862 1.02405C0.469878 0.910308 0.41218 0.759871 0.414923 0.60443C0.417665 0.448989 0.480635 0.300681 0.590565 0.190751C0.700496 0.0808203 0.848804 0.0178508 1.00424 0.0151082C1.15969 0.0123657 1.31012 0.0700643 1.42386 0.176048L6.82386 5.57605C6.93622 5.68855 6.99933 5.84105 6.99933 6.00005C6.99933 6.15905 6.93622 6.31155 6.82386 6.42405L1.42386 11.824C1.31145 11.9366 1.15894 11.9999 0.999861 12V12Z" fill="black"/>
</g>
<defs>
<clipPath id="clip0_322_4281">
<rect x="0.399902" width="6.6" height="12" fill="white"/>
</clipPath>
</defs>
</svg>
