<svg width="7" height="12" viewBox="0 0 7 12" fill="none" xmlns="http://www.w3.org/2000/svg">
<g clip-path="url(#clip0_131_4228)">
<path d="M6.00014 -4.74032e-05C6.15921 9.26523e-05 6.31172 0.0633988 6.42414 0.175953C6.5365 0.288453 6.59961 0.440952 6.59961 0.599953C6.59961 0.758953 6.5365 0.911452 6.42414 1.02395L1.44814 5.99995L6.42414 10.976C6.53012 11.0897 6.58782 11.2401 6.58508 11.3956C6.58233 11.551 6.51937 11.6993 6.40943 11.8092C6.2995 11.9192 6.1512 11.9821 5.99576 11.9849C5.84031 11.9876 5.68988 11.9299 5.57614 11.824L0.176138 6.42395C0.0637776 6.31145 0.000665694 6.15895 0.000665708 5.99995C0.000665722 5.84095 0.0637776 5.68845 0.176138 5.57595L5.57614 0.175953C5.68855 0.0633988 5.84106 9.26245e-05 6.00014 -4.74032e-05V-4.74032e-05Z" fill="#B4BEC5"/>
</g>
<defs>
<clipPath id="clip0_131_4228">
<rect x="6.6001" y="12" width="6.6" height="12" transform="rotate(-180 6.6001 12)" fill="white"/>
</clipPath>
</defs>
</svg>
