<svg width="32" height="32" viewBox="0 0 32 32" fill="none" xmlns="http://www.w3.org/2000/svg">
<path d="M30.4 14.4H17.6V1.6C17.6 1.17565 17.4314 0.768687 17.1314 0.468629C16.8313 0.168571 16.4243 0 16 0C15.5757 0 15.1687 0.168571 14.8686 0.468629C14.5686 0.768687 14.4 1.17565 14.4 1.6V14.4H1.6C1.17565 14.4 0.768687 14.5686 0.468629 14.8686C0.168571 15.1687 0 15.5757 0 16C0 16.4243 0.168571 16.8313 0.468629 17.1314C0.768687 17.4314 1.17565 17.6 1.6 17.6H14.4V30.4C14.4 30.8243 14.5686 31.2313 14.8686 31.5314C15.1687 31.8314 15.5757 32 16 32C16.4243 32 16.8313 31.8314 17.1314 31.5314C17.4314 31.2313 17.6 30.8243 17.6 30.4V17.6H30.4C30.8243 17.6 31.2313 17.4314 31.5314 17.1314C31.8314 16.8313 32 16.4243 32 16C32 15.5757 31.8314 15.1687 31.5314 14.8686C31.2313 14.5686 30.8243 14.4 30.4 14.4Z" fill="#E0E7EC"/>
</svg>
