<svg width="7" height="12" viewBox="0 0 7 12" fill="none" xmlns="http://www.w3.org/2000/svg">
<g clip-path="url(#clip0_15_277)">
<path d="M0.599989 12C0.440912 11.9999 0.288403 11.9366 0.175989 11.824C0.0636284 11.7115 0.00051678 11.559 0.000516808 11.4C0.000516836 11.241 0.0636285 11.0885 0.175989 10.976L5.15199 6.00005L0.175991 1.02405C0.0700067 0.910308 0.0123081 0.759871 0.0150507 0.60443C0.0177933 0.448989 0.0807629 0.300681 0.190693 0.190751C0.300624 0.0808203 0.448932 0.0178508 0.604373 0.0151082C0.759814 0.0123657 0.910251 0.0700643 1.02399 0.176048L6.42399 5.57605C6.53635 5.68855 6.59946 5.84105 6.59946 6.00005C6.59946 6.15905 6.53635 6.31155 6.42399 6.42405L1.02399 11.824C0.911575 11.9366 0.759065 11.9999 0.599989 12Z" fill="#1C1E20"/>
</g>
<defs>
<clipPath id="clip0_15_277">
<rect width="6.6" height="12" fill="white"/>
</clipPath>
</defs>
</svg>
