<svg width="20" height="20" viewBox="0 0 20 20" fill="none" xmlns="http://www.w3.org/2000/svg">
<path d="M7.79119 12.3814C11.1123 12.3814 13.9156 12.9093 13.9156 14.9503C13.9156 16.9897 11.0944 17.5 7.79119 17.5L7.56558 17.4992C4.34411 17.4752 1.66675 16.9258 1.66675 14.9311C1.66675 12.8917 4.48802 12.3814 7.79119 12.3814ZM12.9748 11.1527C14.2379 11.1287 15.5963 11.2988 16.0978 11.4186C17.1611 11.6222 17.8599 12.0366 18.1493 12.6411C18.3948 13.1362 18.3948 13.7112 18.1493 14.2062C17.7066 15.1421 16.278 15.4432 15.7227 15.5206C15.6077 15.5366 15.5156 15.4408 15.5278 15.3274C15.8116 12.7338 13.5554 11.504 12.9716 11.2213C12.9471 11.2078 12.9414 11.1886 12.9438 11.1758C12.9455 11.1678 12.9561 11.1551 12.9748 11.1527ZM7.79119 2.5C10.0409 2.5 11.8437 4.26554 11.8437 6.46868C11.8437 8.67181 10.0409 10.4374 7.79119 10.4374C5.54233 10.4374 3.73867 8.67181 3.73867 6.46868C3.73867 4.26554 5.54233 2.5 7.79119 2.5ZM13.195 3.16286C15.368 3.16286 17.0738 5.16396 16.4925 7.39265C16.1002 8.89468 14.6806 9.89204 13.0988 9.85131C12.9398 9.84812 12.784 9.83295 12.6324 9.80819C12.5231 9.78903 12.4677 9.66845 12.5304 9.57902C13.1338 8.70942 13.4779 7.66255 13.4779 6.54062C13.4779 5.36839 13.1028 4.2768 12.4497 3.38006C12.4285 3.35211 12.413 3.30979 12.4342 3.27705C12.4505 3.25149 12.4831 3.23712 12.5133 3.23073C12.7335 3.18681 12.9593 3.16286 13.195 3.16286Z" fill="black"/>
</svg>
