<svg width="18" height="10" viewBox="0 0 18 10" fill="none" xmlns="http://www.w3.org/2000/svg">
<path d="M18 9.01056C17.9998 9.24947 17.9047 9.47852 17.7357 9.64735C17.5667 9.8161 17.3377 9.91089 17.0989 9.91089C16.8601 9.91089 16.631 9.8161 16.4621 9.64735L8.98876 2.17403L1.51544 9.64735C1.34462 9.80653 1.11868 9.89318 0.885227 9.88906C0.651775 9.88494 0.429035 9.79037 0.263933 9.62527C0.0988317 9.46017 0.00425939 9.23743 0.000140391 9.00398C-0.00397861 8.77052 0.0826773 8.54459 0.241852 8.37376L8.35197 0.263649C8.52093 0.0948973 8.74996 0.00011158 8.98876 0.00011158C9.22756 0.00011158 9.45659 0.0948973 9.62556 0.263649L17.7357 8.37376C17.9047 8.54259 17.9998 8.77165 18 9.01056Z" fill="#1C1E20"/>
</svg>
