<svg width="20" height="21" viewBox="0 0 20 21" fill="none" xmlns="http://www.w3.org/2000/svg">
<path d="M15.8354 9.78276C14.7884 8.63589 12.6522 6.71136 10.0705 6.71136C7.48878 6.71136 5.3753 8.61955 4.33157 9.75662C4.05554 10.0582 3.90234 10.4529 3.90234 10.8626C3.90234 11.2724 4.05554 11.6671 4.33157 11.9687C5.3753 13.1057 7.50504 15.0172 10.0705 15.0172C12.6359 15.0172 14.7884 13.0927 15.8354 11.9425C16.105 11.6482 16.2547 11.2627 16.2547 10.8626C16.2547 10.4626 16.105 10.0771 15.8354 9.78276ZM10.0705 12.498C9.74893 12.498 9.43461 12.4022 9.16726 12.2227C8.8999 12.0432 8.69152 11.788 8.56848 11.4895C8.44543 11.191 8.41323 10.8625 8.47596 10.5456C8.53869 10.2286 8.69353 9.93755 8.9209 9.70907C9.14826 9.48059 9.43794 9.32499 9.75331 9.26195C10.0687 9.19891 10.3956 9.23127 10.6926 9.35492C10.9897 9.47857 11.2436 9.68797 11.4222 9.95663C11.6009 10.2253 11.6962 10.5412 11.6962 10.8643C11.6962 11.2976 11.5249 11.7131 11.2201 12.0195C10.9152 12.3259 10.5017 12.498 10.0705 12.498Z" fill="#B4BEC5"/>
</svg>
