<svg width="679" height="100" viewBox="0 0 679 100" fill="none" xmlns="http://www.w3.org/2000/svg">
<rect width="100" height="100" fill="#0094FF"/>
<path fill-rule="evenodd" clip-rule="evenodd" d="M200 45C200 20.1472 179.853 0 155 0C130.147 0 110 20.1472 110 45H200Z" fill="#0094FF"/>
<path fill-rule="evenodd" clip-rule="evenodd" d="M200 100C200 75.1472 179.853 55 155 55C130.147 55 110 75.1472 110 100H200Z" fill="#1C1E20"/>
<path d="M299.643 12.2373V29.1718H276.473V99.0111H255.171V29.1718H232V12.2373H299.643Z" fill="#1C1E20"/>
<path d="M375.859 63.4116C375.859 65.3894 375.735 67.4495 375.486 69.5921H327.276C327.608 73.8772 328.978 77.1735 331.387 79.4809C333.878 81.7058 336.91 82.8183 340.481 82.8183C345.796 82.8183 349.491 80.5933 351.568 76.1434H374.24C373.077 80.6757 370.96 84.7549 367.887 88.3807C364.897 92.0066 361.118 94.8496 356.551 96.9098C351.983 98.9699 346.875 100 341.228 100C334.418 100 328.356 98.5579 323.04 95.6737C317.725 92.7895 313.573 88.6691 310.583 83.3127C307.593 77.9563 306.099 71.6935 306.099 64.5241C306.099 57.3548 307.552 51.0919 310.459 45.7355C313.448 40.3791 317.601 36.2588 322.916 33.3745C328.231 30.4903 334.335 29.0482 341.228 29.0482C347.955 29.0482 353.935 30.4491 359.167 33.2509C364.399 36.0527 368.468 40.0494 371.375 45.241C374.365 50.4326 375.859 56.4895 375.859 63.4116ZM354.059 57.8492C354.059 54.2233 352.813 51.3391 350.322 49.1965C347.831 47.054 344.716 45.9827 340.979 45.9827C337.408 45.9827 334.377 47.0128 331.885 49.0729C329.477 51.1331 327.982 54.0585 327.401 57.8492H354.059Z" fill="#1C1E20"/>
<path d="M382.862 64.4005C382.862 57.3136 384.191 51.0919 386.848 45.7355C389.589 40.3791 393.284 36.2588 397.935 33.3745C402.586 30.4903 407.776 29.0482 413.507 29.0482C418.407 29.0482 422.684 30.0371 426.338 32.0148C430.075 33.9926 432.94 36.5884 434.933 39.8022V30.0371H456.235V99.0111H434.933V89.246C432.857 92.4598 429.95 95.0556 426.213 97.0334C422.559 99.0111 418.282 100 413.382 100C407.735 100 402.586 98.5579 397.935 95.6737C393.284 92.7071 389.589 88.5455 386.848 83.1891C384.191 77.7503 382.862 71.4874 382.862 64.4005ZM434.933 64.5241C434.933 59.2501 433.438 55.0886 430.449 52.0396C427.542 48.9905 423.971 47.466 419.735 47.466C415.5 47.466 411.887 48.9905 408.898 52.0396C405.991 55.0062 404.538 59.1265 404.538 64.4005C404.538 69.6745 405.991 73.8772 408.898 77.0087C411.887 80.0577 415.5 81.5822 419.735 81.5822C423.971 81.5822 427.542 80.0577 430.449 77.0087C433.438 73.9596 434.933 69.7981 434.933 64.5241Z" fill="#1C1E20"/>
<path d="M560.342 29.2954C568.979 29.2954 575.831 31.8912 580.897 37.0828C586.046 42.2744 588.62 49.485 588.62 58.7145V99.0111H567.443V61.5575C567.443 57.1075 566.239 53.6877 563.83 51.2979C561.505 48.8257 558.266 47.5896 554.114 47.5896C549.961 47.5896 546.681 48.8257 544.272 51.2979C541.947 53.6877 540.784 57.1075 540.784 61.5575V99.0111H519.607V61.5575C519.607 57.1075 518.403 53.6877 515.994 51.2979C513.669 48.8257 510.43 47.5896 506.278 47.5896C502.125 47.5896 498.845 48.8257 496.436 51.2979C494.111 53.6877 492.948 57.1075 492.948 61.5575V99.0111H471.646V30.0371H492.948V38.6897C495.108 35.8055 497.931 33.5394 501.419 31.8912C504.907 30.1607 508.852 29.2954 513.254 29.2954C518.486 29.2954 523.137 30.4079 527.206 32.6329C531.358 34.8579 534.597 38.0305 536.923 42.1508C539.331 38.3601 542.611 35.2699 546.764 32.8801C550.916 30.4903 555.442 29.2954 560.342 29.2954Z" fill="#1C1E20"/>
<path d="M614.232 22.8677C610.495 22.8677 607.422 21.7965 605.013 19.6539C602.688 17.4289 601.525 14.7095 601.525 11.4957C601.525 8.19943 602.688 5.48002 605.013 3.33746C607.422 1.11249 610.495 0 614.232 0C617.886 0 620.876 1.11249 623.201 3.33746C625.609 5.48002 626.814 8.19943 626.814 11.4957C626.814 14.7095 625.609 17.4289 623.201 19.6539C620.876 21.7965 617.886 22.8677 614.232 22.8677ZM624.821 30.0371V99.0111H603.518V30.0371H624.821Z" fill="#1C1E20"/>
<path d="M679 81.0878V99.0111H668.162C660.439 99.0111 654.418 97.157 650.099 93.4487C645.781 89.658 643.621 83.5188 643.621 75.0309V47.5896H635.15V30.0371H643.621V13.2262H664.923V30.0371H678.875V47.5896H664.923V75.2781C664.923 77.3383 665.422 78.8216 666.418 79.7281C667.415 80.6345 669.076 81.0878 671.401 81.0878H679Z" fill="#1C1E20"/>
</svg>
