<svg width="238" height="65" viewBox="0 0 238 65" fill="none" xmlns="http://www.w3.org/2000/svg">
<rect width="35" height="35" fill="#0094FF"/>
<path fill-rule="evenodd" clip-rule="evenodd" d="M38.5 15.75H70C70 7.05152 62.9485 0 54.25 0C45.5515 0 38.5 7.05152 38.5 15.75Z" fill="#0094FF"/>
<path fill-rule="evenodd" clip-rule="evenodd" d="M38.5 35H70C70 26.3015 62.9485 19.25 54.25 19.25C45.5515 19.25 38.5 26.3015 38.5 35Z" fill="#1C1E20"/>
<path d="M104.875 4.28307V10.2101H96.7653V34.6539H89.3097V10.2101H81.2V4.28307H104.875Z" fill="#1C1E20"/>
<path d="M131.551 22.1941C131.551 22.8863 131.507 23.6073 131.42 24.3572H114.547C114.663 25.857 115.142 27.0107 115.985 27.8183C116.857 28.597 117.918 28.9864 119.168 28.9864C121.028 28.9864 122.322 28.2077 123.049 26.6502H130.984C130.577 28.2365 129.836 29.6642 128.76 30.9333C127.714 32.2023 126.391 33.1974 124.793 33.9184C123.194 34.6395 121.406 35 119.43 35C117.046 35 114.924 34.4953 113.064 33.4858C111.204 32.4763 109.75 31.0342 108.704 29.1595C107.658 27.2847 107.134 25.0927 107.134 22.5834C107.134 20.0742 107.643 17.8822 108.66 16.0074C109.707 14.1327 111.16 12.6906 113.021 11.6811C114.881 10.6716 117.017 10.1669 119.43 10.1669C121.784 10.1669 123.877 10.6572 125.708 11.6378C127.54 12.6185 128.964 14.0173 129.981 15.8344C131.028 17.6514 131.551 19.7713 131.551 22.1941ZM123.921 20.2472C123.921 18.9782 123.485 17.9687 122.613 17.2188C121.741 16.4689 120.651 16.0939 119.343 16.0939C118.093 16.0939 117.032 16.4545 116.16 17.1755C115.317 17.8966 114.794 18.9205 114.59 20.2472H123.921Z" fill="#1C1E20"/>
<path d="M134.002 22.5402C134.002 20.0597 134.467 17.8822 135.397 16.0074C136.356 14.1327 137.649 12.6906 139.277 11.6811C140.905 10.6716 142.722 10.1669 144.727 10.1669C146.442 10.1669 147.939 10.513 149.218 11.2052C150.526 11.8974 151.529 12.8059 152.227 13.9308V10.513H159.682V34.6539H152.227V31.2361C151.5 32.3609 150.483 33.2695 149.175 33.9617C147.896 34.6539 146.399 35 144.684 35C142.707 35 140.905 34.4953 139.277 33.4858C137.649 32.4475 136.356 30.9909 135.397 29.1162C134.467 27.2126 134.002 25.0206 134.002 22.5402ZM152.227 22.5834C152.227 20.7375 151.703 19.281 150.657 18.2138C149.64 17.1467 148.39 16.6131 146.907 16.6131C145.425 16.6131 144.161 17.1467 143.114 18.2138C142.097 19.2522 141.588 20.6943 141.588 22.5402C141.588 24.3861 142.097 25.857 143.114 26.953C144.161 28.0202 145.425 28.5538 146.907 28.5538C148.39 28.5538 149.64 28.0202 150.657 26.953C151.703 25.8859 152.227 24.4293 152.227 22.5834Z" fill="#1C1E20"/>
<path d="M196.12 10.2534C199.143 10.2534 201.541 11.1619 203.314 12.979C205.116 14.796 206.017 17.3197 206.017 20.5501V34.6539H198.605V21.5451C198.605 19.9876 198.184 18.7907 197.341 17.9543C196.527 17.089 195.393 16.6564 193.94 16.6564C192.486 16.6564 191.338 17.089 190.495 17.9543C189.681 18.7907 189.274 19.9876 189.274 21.5451V34.6539H181.862V21.5451C181.862 19.9876 181.441 18.7907 180.598 17.9543C179.784 17.089 178.65 16.6564 177.197 16.6564C175.744 16.6564 174.596 17.089 173.753 17.9543C172.939 18.7907 172.532 19.9876 172.532 21.5451V34.6539H165.076V10.513H172.532V13.5414C173.288 12.5319 174.276 11.7388 175.497 11.1619C176.718 10.5562 178.098 10.2534 179.639 10.2534C181.47 10.2534 183.098 10.6428 184.522 11.4215C185.975 12.2002 187.109 13.3107 187.923 14.7528C188.766 13.426 189.914 12.3445 191.367 11.508C192.821 10.6716 194.405 10.2534 196.12 10.2534Z" fill="#1C1E20"/>
<path d="M214.981 8.00371C213.673 8.00371 212.598 7.62876 211.755 6.87886C210.941 6.10012 210.534 5.14833 210.534 4.02349C210.534 2.8698 210.941 1.91801 211.755 1.16811C212.598 0.389371 213.673 0 214.981 0C216.26 0 217.306 0.389371 218.12 1.16811C218.963 1.91801 219.385 2.8698 219.385 4.02349C219.385 5.14833 218.963 6.10012 218.12 6.87886C217.306 7.62876 216.26 8.00371 214.981 8.00371ZM218.687 10.513V34.6539H211.231V10.513H218.687Z" fill="#1C1E20"/>
<path d="M237.65 28.3807V34.6539H233.857C231.153 34.6539 229.046 34.0049 227.535 32.707C226.023 31.3803 225.267 29.2316 225.267 26.2608V16.6564H222.303V10.513H225.267V4.62917H232.723V10.513H237.606V16.6564H232.723V26.3473C232.723 27.0684 232.898 27.5876 233.246 27.9048C233.595 28.2221 234.176 28.3807 234.99 28.3807H237.65Z" fill="#1C1E20"/>
<path d="M1.2 61H3.456C6.108 61 7.56 59.356 7.56 56.572C7.56 53.776 6.108 52.204 3.408 52.204H1.2V61ZM2.316 60.088V53.104H3.312C5.388 53.104 6.408 54.34 6.408 56.572C6.408 58.792 5.388 60.088 3.312 60.088H2.316ZM11.8863 61.156C13.7223 61.156 14.8743 60.052 14.8743 58.66C14.8743 57.352 14.0823 56.752 13.0623 56.308L11.8023 55.768C11.1183 55.48 10.3503 55.156 10.3503 54.304C10.3503 53.512 10.9983 53.008 11.9943 53.008C12.8103 53.008 13.4583 53.332 13.9983 53.836L14.5863 53.128C13.9623 52.48 13.0383 52.036 11.9943 52.036C10.3983 52.036 9.22228 53.02 9.22228 54.376C9.22228 55.66 10.1943 56.284 11.0103 56.632L12.2823 57.184C13.1103 57.556 13.7463 57.844 13.7463 58.744C13.7463 59.608 13.0503 60.184 11.8983 60.184C10.9863 60.184 10.0983 59.752 9.46228 59.092L8.80228 59.848C9.57028 60.652 10.6383 61.156 11.8863 61.156ZM16.5984 61H17.6064V56.128C17.6064 55.372 17.5224 54.304 17.4744 53.536H17.5224L18.2184 55.54L19.8864 60.112H20.6304L22.2984 55.54L22.9944 53.536H23.0424C22.9824 54.304 22.8984 55.372 22.8984 56.128V61H23.9424V52.204H22.5984L20.9184 56.908C20.7144 57.52 20.5224 58.132 20.3184 58.744H20.2584C20.0424 58.132 19.8384 57.52 19.6344 56.908L17.9424 52.204H16.5984V61ZM30.1363 53.104H31.6123C32.9923 53.104 33.7483 53.512 33.7483 54.676C33.7483 55.816 32.9923 56.368 31.6123 56.368H30.1363V53.104ZM35.1163 61L32.8603 57.148C34.0603 56.86 34.8523 56.044 34.8523 54.676C34.8523 52.84 33.5683 52.204 31.7803 52.204H29.0203V61H30.1363V57.268H31.7203L33.8563 61H35.1163ZM39.0406 61.156C39.9286 61.156 40.6246 60.856 41.2006 60.484L40.8046 59.764C40.3246 60.088 39.8086 60.28 39.1726 60.28C37.9366 60.28 37.0846 59.392 37.0126 58H41.4046C41.4286 57.844 41.4526 57.616 41.4526 57.376C41.4526 55.516 40.5166 54.316 38.8606 54.316C37.3486 54.316 35.9206 55.636 35.9206 57.748C35.9206 59.896 37.3126 61.156 39.0406 61.156ZM37.0006 57.22C37.1326 55.936 37.9486 55.192 38.8726 55.192C39.8926 55.192 40.4926 55.9 40.4926 57.22H37.0006ZM43.0571 63.748H44.1491V61.54L44.1251 60.4C44.7131 60.88 45.3371 61.156 45.9251 61.156C47.4251 61.156 48.7571 59.872 48.7571 57.64C48.7571 55.636 47.8451 54.316 46.1651 54.316C45.4091 54.316 44.6771 54.748 44.0891 55.228H44.0531L43.9571 54.484H43.0571V63.748ZM45.7451 60.244C45.3131 60.244 44.7371 60.064 44.1491 59.56V56.14C44.7851 55.552 45.3491 55.24 45.9011 55.24C47.1371 55.24 47.6171 56.212 47.6171 57.652C47.6171 59.272 46.8251 60.244 45.7451 60.244ZM53.0305 61.156C54.6265 61.156 56.0545 59.908 56.0545 57.748C56.0545 55.576 54.6265 54.316 53.0305 54.316C51.4345 54.316 50.0065 55.576 50.0065 57.748C50.0065 59.908 51.4345 61.156 53.0305 61.156ZM53.0305 60.244C51.9025 60.244 51.1465 59.248 51.1465 57.748C51.1465 56.248 51.9025 55.228 53.0305 55.228C54.1585 55.228 54.9265 56.248 54.9265 57.748C54.9265 59.248 54.1585 60.244 53.0305 60.244ZM57.7759 61H58.8679V56.812C59.2999 55.696 59.9719 55.312 60.5119 55.312C60.7759 55.312 60.9319 55.336 61.1479 55.42L61.3519 54.46C61.1479 54.352 60.9439 54.316 60.6559 54.316C59.9239 54.316 59.2639 54.844 58.8079 55.672H58.7719L58.6759 54.484H57.7759V61ZM64.4802 61.156C64.8762 61.156 65.3082 61.036 65.6802 60.916L65.4642 60.1C65.2482 60.184 64.9482 60.268 64.7202 60.268C63.9642 60.268 63.7122 59.812 63.7122 59.008V55.372H65.4762V54.484H63.7122V52.66H62.8002L62.6682 54.484L61.6482 54.544V55.372H62.6202V58.984C62.6202 60.292 63.0882 61.156 64.4802 61.156ZM69.7313 61H70.7393V56.128C70.7393 55.372 70.6553 54.304 70.6073 53.536H70.6553L71.3513 55.54L73.0193 60.112H73.7633L75.4313 55.54L76.1273 53.536H76.1753C76.1153 54.304 76.0312 55.372 76.0312 56.128V61H77.0753V52.204H75.7313L74.0513 56.908C73.8473 57.52 73.6553 58.132 73.4513 58.744H73.3913C73.1753 58.132 72.9713 57.52 72.7673 56.908L71.0753 52.204H69.7313V61ZM80.8735 61.156C81.6775 61.156 82.4095 60.736 83.0335 60.22H83.0695L83.1655 61H84.0655V56.992C84.0655 55.384 83.3935 54.316 81.8095 54.316C80.7655 54.316 79.8415 54.784 79.2415 55.168L79.6735 55.924C80.1895 55.576 80.8735 55.228 81.6295 55.228C82.6975 55.228 82.9735 56.032 82.9735 56.872C80.2015 57.184 78.9655 57.892 78.9655 59.308C78.9655 60.484 79.7815 61.156 80.8735 61.156ZM81.1855 60.28C80.5375 60.28 80.0335 59.98 80.0335 59.236C80.0335 58.396 80.7775 57.856 82.9735 57.592V59.416C82.3375 59.98 81.8215 60.28 81.1855 60.28ZM86.147 61H87.239V56.272C87.899 55.612 88.355 55.276 89.027 55.276C89.891 55.276 90.263 55.792 90.263 57.016V61H91.355V56.872C91.355 55.204 90.731 54.316 89.363 54.316C88.475 54.316 87.803 54.808 87.179 55.42H87.143L87.047 54.484H86.147V61ZM94.9829 61.156C95.7869 61.156 96.5189 60.736 97.1429 60.22H97.1789L97.2749 61H98.1749V56.992C98.1749 55.384 97.5029 54.316 95.9189 54.316C94.8749 54.316 93.9509 54.784 93.3509 55.168L93.7829 55.924C94.2989 55.576 94.9829 55.228 95.7389 55.228C96.8069 55.228 97.0829 56.032 97.0829 56.872C94.3109 57.184 93.0749 57.892 93.0749 59.308C93.0749 60.484 93.8909 61.156 94.9829 61.156ZM95.2949 60.28C94.6469 60.28 94.1429 59.98 94.1429 59.236C94.1429 58.396 94.8869 57.856 97.0829 57.592V59.416C96.4469 59.98 95.9309 60.28 95.2949 60.28ZM102.452 64C104.468 64 105.74 62.956 105.74 61.744C105.74 60.676 104.984 60.196 103.472 60.196H102.2C101.324 60.196 101.06 59.908 101.06 59.488C101.06 59.128 101.24 58.912 101.48 58.708C101.768 58.852 102.128 58.936 102.452 58.936C103.772 58.936 104.828 58.06 104.828 56.668C104.828 56.104 104.612 55.624 104.3 55.324H105.632V54.484H103.364C103.136 54.4 102.812 54.316 102.452 54.316C101.132 54.316 100.004 55.216 100.004 56.644C100.004 57.424 100.424 58.048 100.856 58.396V58.444C100.52 58.684 100.124 59.116 100.124 59.656C100.124 60.172 100.376 60.52 100.724 60.724V60.772C100.112 61.168 99.7523 61.696 99.7523 62.248C99.7523 63.376 100.856 64 102.452 64ZM102.452 58.192C101.696 58.192 101.06 57.592 101.06 56.644C101.06 55.684 101.684 55.12 102.452 55.12C103.22 55.12 103.832 55.696 103.832 56.644C103.832 57.592 103.196 58.192 102.452 58.192ZM102.608 63.256C101.42 63.256 100.712 62.8 100.712 62.104C100.712 61.72 100.916 61.336 101.384 61C101.672 61.072 101.984 61.108 102.224 61.108H103.352C104.216 61.108 104.684 61.312 104.684 61.912C104.684 62.596 103.856 63.256 102.608 63.256ZM109.47 61.156C110.358 61.156 111.054 60.856 111.63 60.484L111.234 59.764C110.754 60.088 110.238 60.28 109.602 60.28C108.366 60.28 107.514 59.392 107.442 58H111.834C111.858 57.844 111.882 57.616 111.882 57.376C111.882 55.516 110.946 54.316 109.29 54.316C107.778 54.316 106.35 55.636 106.35 57.748C106.35 59.896 107.742 61.156 109.47 61.156ZM107.43 57.22C107.562 55.936 108.378 55.192 109.302 55.192C110.322 55.192 110.922 55.9 110.922 57.22H107.43ZM113.487 61H114.579V56.272C115.179 55.6 115.731 55.276 116.223 55.276C117.051 55.276 117.435 55.792 117.435 57.016V61H118.527V56.272C119.139 55.6 119.667 55.276 120.171 55.276C120.999 55.276 121.383 55.792 121.383 57.016V61H122.475V56.872C122.475 55.204 121.839 54.316 120.495 54.316C119.703 54.316 119.019 54.832 118.347 55.564C118.083 54.796 117.543 54.316 116.547 54.316C115.767 54.316 115.083 54.808 114.519 55.432H114.483L114.387 54.484H113.487V61ZM127.224 61.156C128.112 61.156 128.808 60.856 129.384 60.484L128.988 59.764C128.508 60.088 127.992 60.28 127.356 60.28C126.12 60.28 125.268 59.392 125.196 58H129.588C129.612 57.844 129.636 57.616 129.636 57.376C129.636 55.516 128.7 54.316 127.044 54.316C125.532 54.316 124.104 55.636 124.104 57.748C124.104 59.896 125.496 61.156 127.224 61.156ZM125.184 57.22C125.316 55.936 126.132 55.192 127.056 55.192C128.076 55.192 128.676 55.9 128.676 57.22H125.184ZM131.241 61H132.333V56.272C132.993 55.612 133.449 55.276 134.121 55.276C134.985 55.276 135.357 55.792 135.357 57.016V61H136.449V56.872C136.449 55.204 135.825 54.316 134.457 54.316C133.569 54.316 132.897 54.808 132.273 55.42H132.237L132.141 54.484H131.241V61ZM140.629 61.156C141.025 61.156 141.457 61.036 141.829 60.916L141.613 60.1C141.397 60.184 141.097 60.268 140.869 60.268C140.113 60.268 139.861 59.812 139.861 59.008V55.372H141.625V54.484H139.861V52.66H138.949L138.817 54.484L137.797 54.544V55.372H138.769V58.984C138.769 60.292 139.237 61.156 140.629 61.156ZM148.328 61.156C150.164 61.156 151.316 60.052 151.316 58.66C151.316 57.352 150.524 56.752 149.504 56.308L148.244 55.768C147.56 55.48 146.792 55.156 146.792 54.304C146.792 53.512 147.44 53.008 148.436 53.008C149.252 53.008 149.9 53.332 150.44 53.836L151.028 53.128C150.404 52.48 149.48 52.036 148.436 52.036C146.84 52.036 145.664 53.02 145.664 54.376C145.664 55.66 146.636 56.284 147.452 56.632L148.724 57.184C149.552 57.556 150.188 57.844 150.188 58.744C150.188 59.608 149.492 60.184 148.34 60.184C147.428 60.184 146.54 59.752 145.904 59.092L145.244 59.848C146.012 60.652 147.08 61.156 148.328 61.156ZM153.052 63.808C154.348 63.808 155.02 62.824 155.476 61.54L157.936 54.484H156.868L155.704 58.108C155.524 58.684 155.332 59.344 155.152 59.932H155.092C154.888 59.344 154.66 58.672 154.468 58.108L153.136 54.484H151.996L154.612 61.012L154.468 61.504C154.204 62.308 153.736 62.908 152.992 62.908C152.824 62.908 152.632 62.848 152.5 62.8L152.284 63.676C152.488 63.76 152.74 63.808 153.052 63.808ZM160.906 61.156C162.442 61.156 163.282 60.28 163.282 59.224C163.282 57.988 162.238 57.604 161.29 57.244C160.558 56.968 159.85 56.74 159.85 56.116C159.85 55.612 160.222 55.18 161.038 55.18C161.626 55.18 162.082 55.42 162.538 55.756L163.066 55.048C162.55 54.652 161.842 54.316 161.038 54.316C159.622 54.316 158.794 55.132 158.794 56.164C158.794 57.268 159.826 57.712 160.738 58.048C161.458 58.324 162.226 58.624 162.226 59.284C162.226 59.848 161.806 60.304 160.942 60.304C160.162 60.304 159.574 59.992 159.01 59.536L158.47 60.256C159.094 60.772 159.982 61.156 160.906 61.156ZM166.597 61.156C166.993 61.156 167.425 61.036 167.797 60.916L167.581 60.1C167.365 60.184 167.065 60.268 166.837 60.268C166.081 60.268 165.829 59.812 165.829 59.008V55.372H167.593V54.484H165.829V52.66H164.917L164.785 54.484L163.765 54.544V55.372H164.737V58.984C164.737 60.292 165.205 61.156 166.597 61.156ZM171.521 61.156C172.409 61.156 173.105 60.856 173.681 60.484L173.285 59.764C172.805 60.088 172.289 60.28 171.653 60.28C170.417 60.28 169.565 59.392 169.493 58H173.885C173.909 57.844 173.933 57.616 173.933 57.376C173.933 55.516 172.997 54.316 171.341 54.316C169.829 54.316 168.401 55.636 168.401 57.748C168.401 59.896 169.793 61.156 171.521 61.156ZM169.481 57.22C169.613 55.936 170.429 55.192 171.353 55.192C172.373 55.192 172.973 55.9 172.973 57.22H169.481ZM175.538 61H176.63V56.272C177.23 55.6 177.782 55.276 178.274 55.276C179.102 55.276 179.486 55.792 179.486 57.016V61H180.578V56.272C181.19 55.6 181.718 55.276 182.222 55.276C183.05 55.276 183.434 55.792 183.434 57.016V61H184.526V56.872C184.526 55.204 183.89 54.316 182.546 54.316C181.754 54.316 181.07 54.832 180.398 55.564C180.134 54.796 179.594 54.316 178.598 54.316C177.818 54.316 177.134 54.808 176.57 55.432H176.534L176.438 54.484H175.538V61Z" fill="#B4BEC5"/>
</svg>
