<svg width="8" height="6" viewBox="0 0 8 6" fill="none" xmlns="http://www.w3.org/2000/svg">
<g clip-path="url(#clip0_137_5281)">
<path d="M2.99979 5.40003C2.89374 5.39994 2.79206 5.35773 2.71712 5.2827L0.117121 2.68137C0.0464653 2.60554 0.00799956 2.50525 0.00982794 2.40162C0.0116563 2.29799 0.053636 2.19912 0.126923 2.12583C0.20021 2.05255 0.299082 2.01057 0.402709 2.00874C0.506336 2.00691 0.606628 2.04538 0.682455 2.11603L2.99979 4.43337L7.31712 0.117365C7.39295 0.0467094 7.49324 0.0082437 7.59687 0.0100721C7.70049 0.0119005 7.79937 0.0538802 7.87265 0.127167C7.94594 0.200454 7.98792 0.299326 7.98975 0.402953C7.99158 0.506581 7.95311 0.606872 7.88245 0.682699L3.28245 5.2827C3.20751 5.35773 3.10584 5.39994 2.99979 5.40003V5.40003Z" fill="white"/>
</g>
<defs>
<clipPath id="clip0_137_5281">
<rect width="8" height="5.4" fill="white"/>
</clipPath>
</defs>
</svg>
