<svg width="20" height="20" viewBox="0 0 20 20" fill="none" xmlns="http://www.w3.org/2000/svg">
<path d="M9.95744 12.1163C12.8168 12.1163 15.2582 12.5697 15.2582 14.3836C15.2582 16.1968 12.8324 16.6667 9.95744 16.6667C7.09812 16.6667 4.65666 16.2134 4.65666 14.4001C4.65666 12.5862 7.08245 12.1163 9.95744 12.1163ZM14.5291 11.0241C15.6223 11.0038 16.7975 11.1539 17.2318 11.2605C18.1518 11.4413 18.7569 11.8106 19.0076 12.3472C19.2196 12.7878 19.2196 13.2988 19.0076 13.7386C18.6241 14.571 17.3877 14.8381 16.9072 14.9072C16.8079 14.9222 16.7281 14.8359 16.7385 14.7361C16.984 12.4298 15.0313 11.3363 14.5262 11.0849C14.5045 11.0736 14.5 11.0563 14.5023 11.0458C14.5038 11.0383 14.5127 11.0263 14.5291 11.0241ZM5.2654 11.0225L5.47125 11.0244C5.48767 11.0266 5.49587 11.0386 5.49737 11.0454C5.49961 11.0566 5.49513 11.0731 5.47424 11.0852C4.96833 11.3366 3.01561 12.4301 3.2611 14.7356C3.27155 14.8362 3.19245 14.9217 3.09321 14.9075C2.61268 14.8384 1.37628 14.5713 0.992746 13.7389C0.780087 13.2984 0.780087 12.7881 0.992746 12.3475C1.24346 11.8109 1.84786 11.4416 2.76788 11.26C3.2029 11.1542 4.37737 11.0041 5.47125 11.0244L5.2654 11.0225ZM9.95744 3.33333C11.9042 3.33333 13.4652 4.90189 13.4652 6.86071C13.4652 8.81878 11.9042 10.3888 9.95744 10.3888C8.01069 10.3888 6.4497 8.81878 6.4497 6.86071C6.4497 4.90189 8.01069 3.33333 9.95744 3.33333ZM14.7194 3.92158C16.5998 3.92158 18.0764 5.70103 17.5735 7.68311C17.234 9.01751 16.0051 9.90386 14.6358 9.86783C14.4986 9.86408 14.3635 9.85132 14.2329 9.82881C14.1382 9.8123 14.0904 9.70497 14.1441 9.62542C14.6664 8.8524 14.9642 7.92252 14.9642 6.92435C14.9642 5.88265 14.6388 4.9115 14.074 4.11521C14.0561 4.09044 14.0426 4.05217 14.0605 4.02365C14.0755 4.00038 14.1031 3.98837 14.1292 3.98237C14.3195 3.94334 14.515 3.92158 14.7194 3.92158ZM5.27986 3.9215C5.48431 3.9215 5.67981 3.94327 5.87082 3.98229C5.89619 3.9883 5.92455 4.00106 5.93947 4.02357C5.95663 4.05209 5.94395 4.09037 5.92604 4.11513C5.36119 4.91142 5.03586 5.88257 5.03586 6.92428C5.03586 7.92245 5.33358 8.85232 5.8559 9.62535C5.90963 9.7049 5.86187 9.81222 5.76711 9.82873C5.63578 9.852 5.50147 9.86401 5.36418 9.86776C3.99496 9.90378 2.76602 9.01744 2.42651 7.68304C1.92285 5.70095 3.39951 3.9215 5.27986 3.9215Z" fill="black"/>
</svg>
