<svg width="20" height="20" viewBox="0 0 20 20" fill="none" xmlns="http://www.w3.org/2000/svg">
<path d="M18.0156 4.31525L13.9695 0.247458C13.8109 0.0889355 13.5963 -3.03584e-05 13.3726 7.77096e-09H5.28036C4.34167 0.000897503 3.44168 0.376185 2.77793 1.04349C2.11417 1.7108 1.74088 2.61561 1.73999 3.55932L1.73999 16.4407C1.74088 17.3844 2.11417 18.2892 2.77793 18.9565C3.44168 19.6238 4.34167 19.9991 5.28036 20H14.7214C15.66 19.9991 16.56 19.6238 17.2238 18.9565C17.8875 18.2892 18.2608 17.3844 18.2617 16.4407V4.91525C18.2618 4.69041 18.1733 4.4747 18.0156 4.31525V4.31525ZM5.95472 9.71864H11.3496C11.5731 9.71864 11.7875 9.80793 11.9456 9.96686C12.1037 10.1258 12.1925 10.3413 12.1925 10.5661C12.1925 10.7909 12.1037 11.0064 11.9456 11.1653C11.7875 11.3243 11.5731 11.4136 11.3496 11.4136H5.95472C5.73116 11.4136 5.51675 11.3243 5.35867 11.1653C5.20058 11.0064 5.11177 10.7909 5.11177 10.5661C5.11177 10.3413 5.20058 10.1258 5.35867 9.96686C5.51675 9.80793 5.73116 9.71864 5.95472 9.71864V9.71864ZM13.7098 15.7051H5.61754C5.39398 15.7051 5.17957 15.6158 5.02149 15.4569C4.86341 15.2979 4.7746 15.0824 4.7746 14.8576C4.7746 14.6329 4.86341 14.4173 5.02149 14.2584C5.17957 14.0995 5.39398 14.0102 5.61754 14.0102H13.7098C13.9334 14.0102 14.1478 14.0995 14.3059 14.2584C14.464 14.4173 14.5528 14.6329 14.5528 14.8576C14.5528 15.0824 14.464 15.2979 14.3059 15.4569C14.1478 15.6158 13.9334 15.7051 13.7098 15.7051ZM16.5758 5.42373H12.8669V1.69492H13.022L16.5758 5.2678V5.42373Z" fill="black"/>
</svg>
