<svg width="20" height="20" viewBox="0 0 20 20" fill="none" xmlns="http://www.w3.org/2000/svg">
<g clip-path="url(#clip0_318_4264)">
<path d="M15.7976 9.51525C16.0224 9.51525 16.2379 9.42597 16.3969 9.26704C16.5558 9.10811 16.6451 8.89256 16.6451 8.6678V4.91525C16.6451 4.69041 16.5561 4.4747 16.3976 4.31525L12.3298 0.247458C12.1704 0.0889355 11.9547 -3.03584e-05 11.7298 7.77096e-09H3.59423C2.65052 0.000897503 1.74571 0.376185 1.0784 1.04349C0.411097 1.7108 0.0358096 2.61561 0.0349121 3.55932L0.0349121 16.4407C0.0358096 17.3844 0.411097 18.2892 1.0784 18.9565C1.74571 19.6238 2.65052 19.9991 3.59423 20H10.1197C10.2724 19.9999 10.4224 19.9586 10.5535 19.8803C10.6847 19.802 10.7923 19.6897 10.8649 19.5552C10.9375 19.4208 10.9724 19.2693 10.9659 19.1166C10.9595 18.964 10.9119 18.8159 10.8281 18.6881C10.2443 17.793 9.91315 16.7567 9.86965 15.6889C9.82615 14.6211 10.0719 13.5613 10.581 12.6217C11.0901 11.682 11.8435 10.8973 12.7618 10.3505C13.68 9.80372 14.7289 9.51513 15.7976 9.51525V9.51525ZM7.32305 15.7051H3.93322C3.70846 15.7051 3.4929 15.6158 3.33397 15.4569C3.17504 15.2979 3.08576 15.0824 3.08576 14.8576C3.08576 14.6329 3.17504 14.4173 3.33397 14.2584C3.4929 14.0995 3.70846 14.0102 3.93322 14.0102H7.32305C7.54781 14.0102 7.76336 14.0995 7.92229 14.2584C8.08122 14.4173 8.1705 14.6329 8.1705 14.8576C8.1705 15.0824 8.08122 15.2979 7.92229 15.4569C7.76336 15.6158 7.54781 15.7051 7.32305 15.7051ZM8.71966 11.4136H3.93322C3.70846 11.4136 3.4929 11.3243 3.33397 11.1653C3.17504 11.0064 3.08576 10.7909 3.08576 10.5661C3.08576 10.3413 3.17504 10.1258 3.33397 9.96686C3.4929 9.80793 3.70846 9.71864 3.93322 9.71864H8.71966C8.94442 9.71864 9.15997 9.80793 9.3189 9.96686C9.47783 10.1258 9.56712 10.3413 9.56712 10.5661C9.56712 10.7909 9.47783 11.0064 9.3189 11.1653C9.15997 11.3243 8.94442 11.4136 8.71966 11.4136V11.4136ZM11.2214 1.69492H11.3773L14.9502 5.2678V5.42373H11.2214V1.69492Z" fill="black"/>
<path d="M19.7128 12.4135L18.3162 11.0203C18.2378 10.9415 18.1446 10.8789 18.0419 10.8363C17.9392 10.7936 17.8291 10.7716 17.7179 10.7716C17.6067 10.7716 17.4966 10.7936 17.394 10.8363C17.2913 10.8789 17.198 10.9415 17.1196 11.0203L12.8891 15.2542C12.7827 15.3612 12.7066 15.4946 12.6688 15.6406L12.1908 17.5152C12.1581 17.6404 12.1545 17.7714 12.1805 17.8981C12.2064 18.0248 12.2612 18.1439 12.3404 18.2461C12.4197 18.3483 12.5214 18.4309 12.6377 18.4876C12.754 18.5442 12.8818 18.5734 13.0111 18.5728C13.082 18.5722 13.1526 18.563 13.2213 18.5457L15.0925 18.0678C15.2398 18.0287 15.3743 17.9515 15.4823 17.844L19.7128 13.6135C19.8714 13.4541 19.9604 13.2384 19.9604 13.0135C19.9604 12.7887 19.8714 12.5729 19.7128 12.4135V12.4135Z" fill="black"/>
</g>
<defs>
<clipPath id="clip0_318_4264">
<rect width="20" height="20" fill="white"/>
</clipPath>
</defs>
</svg>
