<svg width="25" height="24" viewBox="0 0 25 24" fill="none" xmlns="http://www.w3.org/2000/svg">
<g clip-path="url(#clip0_322_4276)">
<path d="M12.4054 0.0949822C9.39943 0.0908223 6.5016 1.21601 4.28611 3.24758C2.07061 5.27915 0.699114 8.06885 0.443389 11.0639C0.187665 14.0589 1.06637 17.0408 2.90539 19.4185C4.74441 21.7963 7.40954 23.3965 10.3727 23.9019V20.1862H10.1531C9.27246 20.2243 8.40722 19.9459 7.7139 19.4016C7.32191 19.0235 7.03234 18.5521 6.87237 18.0315C6.7504 17.7022 6.69349 17.5721 6.57153 17.4827C6.34212 17.3531 6.07488 17.3071 5.81536 17.3526C5.68189 17.3651 5.54726 17.3513 5.41915 17.3118C5.29104 17.2723 5.17196 17.208 5.06871 17.1225C4.8602 16.9498 4.72882 16.7013 4.70348 16.4318C4.67814 16.1622 4.76092 15.8936 4.9336 15.6851C5.10629 15.4766 5.35474 15.3452 5.62429 15.3199C6.38567 15.2135 7.159 15.401 7.78708 15.8443C8.26047 16.2194 8.60567 16.7322 8.77497 17.3119C8.83236 17.5247 8.93653 17.7219 9.07988 17.8892C9.48518 18.1198 9.95679 18.2058 10.4174 18.1331C10.4405 17.824 10.5133 17.5207 10.6329 17.2347C10.8873 16.6336 11.3111 16.1195 11.8525 15.7549C8.77091 15.4134 7.32363 13.9173 7.32363 11.8846C7.35728 10.9741 7.72148 10.1069 8.34811 9.44539C8.14484 8.73802 7.87245 7.2826 8.43754 6.71751C8.89169 6.72597 9.33903 6.82945 9.75074 7.0213C10.1625 7.21316 10.5294 7.48913 10.828 7.83143C11.5299 7.57564 12.2684 7.43426 13.0152 7.4127C13.7647 7.41343 14.5091 7.53703 15.2186 7.77858C15.5172 7.43628 15.8842 7.16031 16.2959 6.96845C16.7076 6.7766 17.1549 6.67311 17.6091 6.66466C18.1538 7.20943 17.9018 8.69736 17.6741 9.39255C18.3232 10.0614 18.6925 10.9527 18.7067 11.8846C18.7067 13.9173 17.2716 15.4337 14.2348 15.7508C15.0723 16.1818 15.6658 17.4095 15.6658 18.3202V23.6296C18.4527 22.8427 20.8608 21.0739 22.4453 18.65C24.0299 16.226 24.6838 13.3106 24.2864 10.4421C23.889 7.57364 22.4671 4.94582 20.2833 3.04394C18.0995 1.14206 15.3013 0.0945995 12.4054 0.0949822V0.0949822Z" fill="black"/>
</g>
<defs>
<clipPath id="clip0_322_4276">
<rect width="24" height="24" fill="white" transform="translate(0.399902)"/>
</clipPath>
</defs>
</svg>
