<svg width="24" height="24" viewBox="0 0 24 24" fill="none" xmlns="http://www.w3.org/2000/svg">
<path d="M12.0055 0.0949822C8.99953 0.0908223 6.1017 1.21601 3.8862 3.24758C1.67071 5.27915 0.299212 8.06885 0.0434869 11.0639C-0.212238 14.0589 0.666468 17.0408 2.50549 19.4185C4.3445 21.7963 7.00963 23.3965 9.97277 23.9019V20.1862H9.75324C8.87256 20.2243 8.00731 19.9459 7.314 19.4016C6.922 19.0235 6.63244 18.5521 6.47246 18.0315C6.3505 17.7022 6.29359 17.5721 6.17162 17.4827C5.94222 17.3531 5.67498 17.3071 5.41546 17.3526C5.28199 17.3651 5.14736 17.3513 5.01925 17.3118C4.89114 17.2723 4.77206 17.208 4.66881 17.1225C4.46029 16.9498 4.32891 16.7013 4.30358 16.4318C4.27824 16.1622 4.36102 15.8936 4.5337 15.6851C4.70639 15.4766 4.95483 15.3452 5.22439 15.3199C5.98577 15.2135 6.75909 15.401 7.38718 15.8443C7.86056 16.2194 8.20576 16.7322 8.37507 17.3119C8.43246 17.5247 8.53663 17.7219 8.67997 17.8892C9.08528 18.1198 9.55689 18.2058 10.0175 18.1331C10.0406 17.824 10.1134 17.5207 10.233 17.2347C10.4874 16.6336 10.9112 16.1195 11.4526 15.7549C8.371 15.4134 6.92372 13.9173 6.92372 11.8846C6.95738 10.9741 7.32158 10.1069 7.9482 9.44539C7.74493 8.73802 7.47255 7.2826 8.03764 6.71751C8.49179 6.72597 8.93913 6.82945 9.35084 7.0213C9.76256 7.21316 10.1295 7.48913 10.4281 7.83143C11.13 7.57564 11.8685 7.43426 12.6153 7.4127C13.3648 7.41343 14.1092 7.53703 14.8187 7.77858C15.1173 7.43628 15.4843 7.16031 15.896 6.96845C16.3077 6.7766 16.755 6.67311 17.2092 6.66466C17.7539 7.20943 17.5019 8.69736 17.2742 9.39254C17.9233 10.0614 18.2926 10.9527 18.3068 11.8846C18.3068 13.9173 16.8717 15.4337 13.8349 15.7508C14.6724 16.1818 15.2659 17.4095 15.2659 18.3202V23.6296C18.0528 22.8427 20.4609 21.0739 22.0454 18.65C23.63 16.226 24.2839 13.3106 23.8865 10.4421C23.4891 7.57364 22.0672 4.94582 19.8834 3.04394C17.6996 1.14206 14.9014 0.0945995 12.0055 0.0949822Z" fill="#1C1E20"/>
</svg>
