<svg width="20" height="20" viewBox="0 0 20 20" fill="none" xmlns="http://www.w3.org/2000/svg">
<g clip-path="url(#clip0_318_4270)">
<path d="M10.0037 11.5255C10.8462 11.5255 11.5291 10.8425 11.5291 10C11.5291 9.15756 10.8462 8.47461 10.0037 8.47461C9.16123 8.47461 8.47827 9.15756 8.47827 10C8.47827 10.8425 9.16123 11.5255 10.0037 11.5255Z" fill="black"/>
<path d="M19.3698 12.0847L17.8138 11.1864C17.6019 11.0692 17.4252 10.8973 17.3022 10.6886C17.1792 10.48 17.1143 10.2422 17.1143 10C17.1143 9.75779 17.1792 9.52 17.3022 9.31135C17.4252 9.10271 17.6019 8.93082 17.8138 8.81356L19.3698 7.91525C19.5637 7.8026 19.705 7.61768 19.7628 7.40102C19.8206 7.18435 19.7902 6.95361 19.6782 6.75932L17.6443 3.24068C17.5885 3.14422 17.5143 3.05971 17.4258 2.99199C17.3373 2.92426 17.2363 2.87466 17.1287 2.846C17.021 2.81735 16.9087 2.81022 16.7982 2.82501C16.6878 2.8398 16.5814 2.87623 16.485 2.9322L14.9359 3.83051C14.7287 3.94629 14.4953 4.00708 14.2579 4.00708C14.0205 4.00708 13.7871 3.94629 13.5799 3.83051C13.372 3.71048 13.1997 3.53739 13.0806 3.32894C12.9614 3.12048 12.8998 2.88414 12.902 2.64407V0.847458C12.902 0.734436 12.8794 0.622549 12.8356 0.518382C12.7917 0.414215 12.7275 0.319873 12.6466 0.240907C12.5657 0.161942 12.4699 0.0999488 12.3647 0.0585761C12.2595 0.0172035 12.1472 -0.00271255 12.0342 -2.03925e-08H7.96637C7.74161 -2.03925e-08 7.52606 0.0892854 7.36713 0.248215C7.2082 0.407144 7.11891 0.622698 7.11891 0.847458V2.64407C7.12325 2.88613 7.0627 3.12493 6.94354 3.33568C6.82439 3.54643 6.65099 3.72143 6.44135 3.84251C6.2317 3.9636 5.99346 4.02634 5.75137 4.02423C5.50928 4.02212 5.27218 3.95523 5.06468 3.83051L3.51552 2.9322C3.41943 2.87631 3.31325 2.83994 3.20306 2.82519C3.09288 2.81045 2.98087 2.81761 2.87346 2.84627C2.76606 2.87494 2.66537 2.92453 2.57719 2.99222C2.489 3.0599 2.41505 3.14434 2.35959 3.24068L0.325692 6.75932C0.26934 6.85529 0.232605 6.9615 0.217618 7.07178C0.202631 7.18206 0.20969 7.29422 0.238386 7.40175C0.267082 7.50928 0.316843 7.61004 0.384783 7.69819C0.452723 7.78634 0.53749 7.86012 0.634166 7.91525L2.19349 8.81356C2.40542 8.93082 2.58208 9.10271 2.70509 9.31135C2.8281 9.52 2.89298 9.75779 2.89298 10C2.89298 10.2422 2.8281 10.48 2.70509 10.6886C2.58208 10.8973 2.40542 11.0692 2.19349 11.1864L0.637556 12.0847C0.54088 12.1399 0.456113 12.2137 0.388173 12.3018C0.320233 12.39 0.270472 12.4907 0.241776 12.5983C0.21308 12.7058 0.206021 12.8179 0.221008 12.9282C0.235995 13.0385 0.27273 13.1447 0.329081 13.2407L2.36298 16.7593C2.47564 16.9532 2.66055 17.0945 2.87722 17.1524C3.09388 17.2102 3.32463 17.1798 3.51891 17.0678L5.07484 16.1695C5.28235 16.0448 5.51945 15.9779 5.76154 15.9758C6.00363 15.9737 6.24187 16.0364 6.45152 16.1575C6.66116 16.2786 6.83456 16.4536 6.95371 16.6643C7.07286 16.8751 7.13342 17.1139 7.12908 17.3559V19.1525C7.12908 19.3773 7.21837 19.5929 7.3773 19.7518C7.53623 19.9107 7.75178 20 7.97654 20H12.0443C12.2691 20 12.4846 19.9107 12.6436 19.7518C12.8025 19.5929 12.8918 19.3773 12.8918 19.1525V17.3559C12.8875 17.1139 12.948 16.8751 13.0672 16.6643C13.1863 16.4536 13.3597 16.2786 13.5694 16.1575C13.779 16.0364 14.0172 15.9737 14.2593 15.9758C14.5014 15.9779 14.7385 16.0448 14.946 16.1695L16.485 17.0678C16.6793 17.1798 16.91 17.2102 17.1267 17.1524C17.3434 17.0945 17.5283 16.9532 17.6409 16.7593L19.6748 13.2407C19.7868 13.0464 19.8172 12.8156 19.7594 12.599C19.7016 12.3823 19.5603 12.1974 19.3664 12.0847H19.3698ZM10.0037 13.2203C9.36673 13.2203 8.74412 13.0315 8.21453 12.6776C7.68495 12.3238 7.27219 11.8208 7.02845 11.2324C6.78471 10.6439 6.72094 9.99643 6.8452 9.37174C6.96945 8.74706 7.27616 8.17325 7.72653 7.72288C8.17691 7.2725 8.75072 6.9658 9.3754 6.84154C10.0001 6.71728 10.6476 6.78106 11.236 7.0248C11.8245 7.26854 12.3274 7.68129 12.6813 8.21088C13.0351 8.74046 13.224 9.36308 13.224 10C13.2231 10.8538 12.8835 11.6724 12.2798 12.2761C11.6761 12.8799 10.8575 13.2194 10.0037 13.2203V13.2203Z" fill="black"/>
</g>
<defs>
<clipPath id="clip0_318_4270">
<rect width="20" height="20" fill="white"/>
</clipPath>
</defs>
</svg>
