<svg width="20" height="20" viewBox="0 0 20 20" fill="none" xmlns="http://www.w3.org/2000/svg">
<path d="M15.8349 8.95279C14.7879 7.80592 12.6517 5.8814 10.07 5.8814C7.48829 5.8814 5.37481 7.78959 4.33108 8.92665C4.05505 9.2282 3.90186 9.62296 3.90186 10.0327C3.90186 10.4424 4.05505 10.8372 4.33108 11.1387C5.37481 12.2758 7.50455 14.1872 10.07 14.1872C12.6354 14.1872 14.7879 12.2627 15.8349 11.1126C16.1045 10.8182 16.2542 10.4328 16.2542 10.0327C16.2542 9.63261 16.1045 9.24715 15.8349 8.95279V8.95279ZM10.07 11.668C9.74844 11.668 9.43412 11.5722 9.16677 11.3927C8.89941 11.2132 8.69104 10.958 8.56799 10.6595C8.44494 10.361 8.41274 10.0325 8.47547 9.71559C8.5382 9.39868 8.69304 9.10758 8.92041 8.8791C9.14777 8.65062 9.43745 8.49503 9.75282 8.43199C10.0682 8.36895 10.3951 8.4013 10.6921 8.52496C10.9892 8.64861 11.2431 8.85801 11.4217 9.12667C11.6004 9.39533 11.6957 9.7112 11.6957 10.0343C11.6957 10.4676 11.5245 10.8831 11.2196 11.1895C10.9147 11.4959 10.5012 11.668 10.07 11.668V11.668Z" fill="black"/>
</svg>
